<svg xmlns="http://www.w3.org/2000/svg" width="204.13" height="35" viewBox="0 0 204.13 35"><rect class="svg__rect" x="0" y="0" width="106.33" height="35" fill="#FF0000"/><rect class="svg__rect" x="104.33" y="0" width="99.8" height="35" fill="#389AD5"/><path class="svg__text" d="M15.69 22L14.22 22L14.22 13.47L16.14 13.47L18.60 20.01L21.06 13.47L22.97 13.47L22.97 22L21.49 22L21.49 19.19L21.64 15.43L19.12 22L18.06 22L15.55 15.43L15.69 19.19L15.69 22ZM28.49 22L26.95 22L30.17 13.47L31.50 13.47L34.73 22L33.18 22L32.49 20.01L29.18 20.01L28.49 22ZM30.83 15.28L29.60 18.82L32.07 18.82L30.83 15.28ZM41.14 22L38.69 22L38.69 13.47L41.21 13.47Q42.34 13.47 43.21 13.97Q44.09 14.48 44.57 15.40Q45.05 16.33 45.05 17.52L45.05 17.52L45.05 17.95Q45.05 19.16 44.57 20.08Q44.08 21.00 43.19 21.50Q42.30 22 41.14 22L41.14 22ZM40.17 14.66L40.17 20.82L41.14 20.82Q42.30 20.82 42.93 20.09Q43.55 19.36 43.56 17.99L43.56 17.99L43.56 17.52Q43.56 16.13 42.96 15.40Q42.35 14.66 41.21 14.66L41.21 14.66L40.17 14.66ZM55.09 22L49.51 22L49.51 13.47L55.05 13.47L55.05 14.66L51.00 14.66L51.00 17.02L54.50 17.02L54.50 18.19L51.00 18.19L51.00 20.82L55.09 20.82L55.09 22ZM66.75 22L65.26 22L65.26 13.47L70.68 13.47L70.68 14.66L66.75 14.66L66.75 17.20L70.18 17.20L70.18 18.38L66.75 18.38L66.75 22ZM74.57 18.00L74.57 18.00L74.57 17.52Q74.57 16.28 75.02 15.32Q75.46 14.37 76.27 13.86Q77.07 13.35 78.11 13.35Q79.16 13.35 79.96 13.85Q80.77 14.35 81.21 15.29Q81.65 16.23 81.65 17.48L81.65 17.48L81.65 17.96Q81.65 19.21 81.22 20.16Q80.79 21.10 79.98 21.61Q79.17 22.12 78.13 22.12L78.13 22.12Q77.09 22.12 76.28 21.61Q75.47 21.10 75.02 20.17Q74.58 19.23 74.57 18.00ZM76.06 17.46L76.06 17.96Q76.06 19.36 76.60 20.13Q77.15 20.90 78.13 20.90L78.13 20.90Q79.11 20.90 79.64 20.15Q80.17 19.40 80.17 17.96L80.17 17.96L80.17 17.51Q80.17 16.09 79.63 15.34Q79.10 14.58 78.11 14.58L78.11 14.58Q77.15 14.58 76.61 15.33Q76.07 16.09 76.06 17.46L76.06 17.46ZM87.60 22L86.12 22L86.12 13.47L89.12 13.47Q90.59 13.47 91.40 14.13Q92.20 14.79 92.20 16.05L92.20 16.05Q92.20 16.90 91.79 17.48Q91.37 18.06 90.64 18.37L90.64 18.37L92.55 21.92L92.55 22L90.96 22L89.25 18.71L87.60 18.71L87.60 22ZM87.60 14.66L87.60 17.52L89.12 17.52Q89.87 17.52 90.30 17.15Q90.72 16.77 90.72 16.11L90.72 16.11Q90.72 15.43 90.33 15.05Q89.94 14.68 89.16 14.66L89.16 14.66L87.60 14.66Z" fill="#FFFFFF"/><path class="svg__text" d="M120.90 22L118.52 22L118.52 13.60L120.90 13.60L120.90 22ZM128.45 22L126.07 22L126.07 13.60L129.91 13.60Q131.06 13.60 131.89 13.98Q132.73 14.35 133.19 15.06Q133.65 15.76 133.65 16.71L133.65 16.71Q133.65 17.62 133.22 18.30Q132.79 18.98 132.00 19.36L132.00 19.36L133.81 22L131.27 22L129.74 19.77L128.45 19.77L128.45 22ZM128.45 15.47L128.45 17.93L129.77 17.93Q130.50 17.93 130.87 17.61Q131.24 17.29 131.24 16.71L131.24 16.71Q131.24 16.12 130.87 15.79Q130.50 15.47 129.77 15.47L129.77 15.47L128.45 15.47ZM139.85 22L137.43 22L141.14 13.60L143.48 13.60L147.19 22L144.73 22L144.06 20.37L140.51 20.37L139.85 22ZM142.29 15.93L141.21 18.61L143.37 18.61L142.29 15.93ZM150.92 17.80L150.92 17.80Q150.92 16.54 151.52 15.54Q152.12 14.55 153.17 13.99Q154.22 13.43 155.54 13.43L155.54 13.43Q156.69 13.43 157.61 13.84Q158.54 14.25 159.15 15.02L159.15 15.02L157.64 16.39Q156.83 15.40 155.66 15.40L155.66 15.40Q154.97 15.40 154.44 15.70Q153.91 16 153.61 16.54Q153.32 17.09 153.32 17.80L153.32 17.80Q153.32 18.51 153.61 19.05Q153.91 19.60 154.44 19.90Q154.97 20.20 155.66 20.20L155.66 20.20Q156.83 20.20 157.64 19.22L157.64 19.22L159.15 20.58Q158.54 21.35 157.62 21.76Q156.69 22.17 155.54 22.17L155.54 22.17Q154.22 22.17 153.17 21.61Q152.12 21.05 151.52 20.05Q150.92 19.06 150.92 17.80ZM166.07 22L163.69 22L163.69 13.60L166.07 13.60L166.07 22ZM173.57 22L171.24 22L171.24 13.60L173.20 13.60L176.91 18.07L176.91 13.60L179.23 13.60L179.23 22L177.28 22L173.57 17.52L173.57 22ZM183.97 17.80L183.97 17.80Q183.97 16.54 184.56 15.54Q185.16 14.55 186.23 13.99Q187.30 13.43 188.64 13.43L188.64 13.43Q189.82 13.43 190.76 13.83Q191.70 14.22 192.32 14.97L192.32 14.97L190.80 16.33Q189.96 15.40 188.78 15.40L188.78 15.40Q188.77 15.40 188.77 15.40L188.77 15.40Q187.69 15.40 187.03 16.06Q186.36 16.71 186.36 17.80L186.36 17.80Q186.36 18.50 186.67 19.04Q186.97 19.59 187.51 19.89Q188.05 20.20 188.74 20.20L188.74 20.20Q189.43 20.20 190.03 19.93L190.03 19.93L190.03 17.62L192.12 17.62L192.12 21.10Q191.40 21.61 190.47 21.89Q189.53 22.17 188.60 22.17L188.60 22.17Q187.28 22.17 186.22 21.61Q185.16 21.05 184.56 20.05Q183.97 19.06 183.97 17.80Z" fill="#FFFFFF" x="117.33"/></svg>